<?xml version="1.0" encoding="UTF-8" standalone="no"?>
<svg
   width="135"
   height="135"
   viewBox="0 0 135 135"
   fill="none"
   aria-hidden="true"
   version="1.1"
   id="svg2"
   sodipodi:docname="symbol.svg"
   inkscape:version="1.4.3 (0d15f75, 2025-12-25)"
   xmlns:inkscape="http://www.inkscape.org/namespaces/inkscape"
   xmlns:sodipodi="http://sodipodi.sourceforge.net/DTD/sodipodi-0.dtd"
   xmlns="http://www.w3.org/2000/svg"
   xmlns:svg="http://www.w3.org/2000/svg">
  <defs
     id="defs2" />
  <sodipodi:namedview
     id="namedview2"
     pagecolor="#ffffff"
     bordercolor="#999999"
     borderopacity="1"
     inkscape:showpageshadow="0"
     inkscape:pageopacity="0"
     inkscape:pagecheckerboard="0"
     inkscape:deskcolor="#d1d1d1"
     inkscape:zoom="2.7329677"
     inkscape:cx="45.00602"
     inkscape:cy="75.92479"
     inkscape:window-width="1920"
     inkscape:window-height="991"
     inkscape:window-x="-9"
     inkscape:window-y="-9"
     inkscape:window-maximized="1"
     inkscape:current-layer="svg2" />
  <path
     d="M 18,0 C 8,0 0,8 0,18 v 86 c 0,12 10,22 22,22 h 54 c 0,-12 2,-26 10,-38 10,-14 24,-22 38,-24 h 2 V 36 C 126,22 122,12 112,6 L 86,0 Z"
     fill="#94a3b8"
     id="path1"
     style="fill:#1a1a1a;fill-opacity:1"
     inkscape:export-filename="icons\common-parts-symbol-16.png"
     inkscape:export-xdpi="11.211679"
     inkscape:export-ydpi="11.211679" />
  <path
     d="m 82.99967,135.00026 h 32 c 10,0 18,-8 20,-18 v -38 c 0,-6 -4,-10 -10,-8 -12,4 -24,12 -32,24 -8,12 -12,26 -10,36 z"
     fill="#6366f1"
     id="path2"
     style="fill:#234f3e;fill-opacity:1"
     inkscape:export-filename="icons\common-parts-symbol-16.png"
     inkscape:export-xdpi="11.377806"
     inkscape:export-ydpi="11.377806" />
</svg>
